<?xml version="1.0" encoding="UTF-8"?>
<svg version="1.1" xmlns="http://www.w3.org/2000/svg" width="1024" height="1024">
<path d="M0 0 C0.99 0.33 1.98 0.66 3 1 C4.05110522 4.15331565 4.13999904 6.4384726 4.17578125 9.75 C4.65526769 36.3272486 8.16913644 62.93369749 26 84 C28.26719745 86.04418684 28.26719745 86.04418684 31 87 C50.25585953 82.11339641 67.02292777 59.19520012 78.30859375 44.15161133 C81.71660821 39.61479753 85.26499267 35.27257959 89 31 C90.13446388 34.40339164 89.86020522 35.22534634 88.8125 38.54296875 C88.52963135 39.444104 88.2467627 40.34523926 87.95532227 41.27368164 C87.64006592 42.2352417 87.32480957 43.19680176 87 44.1875 C86.67894287 45.17548584 86.35788574 46.16347168 86.02709961 47.18139648 C81.85855182 59.74811747 77.04714152 71.18680094 69.40625 82.03515625 C67.57998251 85.88553688 68.09173151 87.87717344 69 92 C69.19078125 93.20269531 69.3815625 94.40539062 69.578125 95.64453125 C69.80198187 97.03387052 70.02594833 98.42319213 70.25 99.8125 C71.27778077 106.1980277 72.23345166 112.59124432 73.1328125 118.99609375 C75.45786862 135.48955972 77.95102993 151.82211513 82 168 C82.33402832 169.35786621 82.33402832 169.35786621 82.67480469 170.74316406 C89.16852678 196.6722575 100.50504913 216.56381265 123.3125 231.25 C152.71105665 248.50797623 184.75261715 251.06341334 218.11328125 252.49609375 C219.09313995 252.53831558 220.07299866 252.58053741 221.08255005 252.6240387 C225.98335819 252.83297743 230.88429197 253.03195738 235.78613281 253.21508789 C251.56515211 253.82927507 267.07659144 255.10052244 282.5625 258.3125 C283.61171631 258.52543701 284.66093262 258.73837402 285.74194336 258.95776367 C294.65185287 260.81816421 303.34268102 263.20155439 312 266 C312.12632812 265.13117188 312.25265625 264.26234375 312.3828125 263.3671875 C312.97388407 260.1424806 313.8346946 257.22978742 314.875 254.125 C320.57750646 235.98066125 321.29649488 217.87102689 321 199 C320.98912354 197.93604004 320.98912354 197.93604004 320.97802734 196.85058594 C320.6037629 171.89539418 313.0734393 148.12087935 303.41796875 125.37890625 C302 122 302 122 301 119 C319.49879304 124.41692329 331.80323299 143.67619112 340.67578125 159.73828125 C360.66643081 197.38164631 361.11147089 237.24222166 356.23840332 278.64697266 C356.06318525 280.13660796 355.89163179 281.62667954 355.72399902 283.1171875 C355.39041283 286.03063054 355.02146327 288.89684899 354.42382812 291.76904297 C353.7920118 294.92607323 353.65091819 297.29294755 355.09301758 300.21386719 C356.73614822 302.63716895 358.5061348 304.87155499 360.375 307.125 C361.68311489 308.80100689 362.98647995 310.48073142 364.28515625 312.1640625 C364.92469238 312.98551758 365.56422852 313.80697266 366.22314453 314.65332031 C390.14357901 346.24485867 396.85578273 384.96522223 398.22973633 423.58251953 C399.11522742 446.60622492 402.43379515 468.23982515 418.75390625 485.578125 C419.49511719 486.37734375 420.23632812 487.1765625 421 488 C422.28620239 489.28173096 422.28620239 489.28173096 423.59838867 490.58935547 C426.80273415 494.47730795 426.7141553 498.11411305 426.671875 502.9921875 C426.68462463 503.85578888 426.69737427 504.71939026 426.71051025 505.60916138 C426.74667731 508.36477438 426.74951669 511.11917167 426.75 513.875 C426.7789832 517.4766457 426.8197554 521.07814495 426.859375 524.6796875 C426.87158836 526.00510559 426.87158836 526.00510559 426.88404846 527.3572998 C427.0232416 540.30503774 428.14975094 552.93475086 430.0625 565.75 C431.29881211 574.60011819 432.40917226 583.36813043 432.5 592.3125 C432.51812744 593.0746582 432.53625488 593.83681641 432.55493164 594.62207031 C432.47958251 601.55419008 430.1880111 608.08435665 425.25 613.0625 C424.5075 613.701875 423.765 614.34125 423 615 C423.33 615.66 423.66 616.32 424 617 C420.36038435 617.82164749 416.91863726 618.16975037 413.19140625 618.28125 C411.99588135 618.31798828 410.80035645 618.35472656 409.56860352 618.39257812 C408.23324139 618.42859777 406.8978733 618.46439696 405.5625 618.5 C404.14705221 618.54095238 402.7316063 618.58197028 401.31616211 618.62304688 C391.69106951 618.89238366 382.06480263 619.07994921 372.4375 619.25 C371.25623032 619.27098755 370.07496063 619.2919751 368.8578949 619.31359863 C362.94318548 619.4176226 357.02844967 619.5164303 351.11352539 619.60742188 C337.16759575 619.82982699 337.16759575 619.82982699 323.23828125 620.5 C310.21977461 621.33112409 297.16503577 621.32886253 284.125 621.5 C278.89836947 621.56877991 273.67183784 621.6424339 268.4453125 621.71875 C266.7162114 621.73911316 266.7162114 621.73911316 264.95217896 621.7598877 C259.063334 621.8461209 253.19552368 622.03134844 247.31658649 622.37046242 C233.37770464 623.16413956 219.45397063 623.14444553 205.49609375 623.1328125 C203.42947997 623.13326315 201.36286757 623.13446238 199.29625416 623.13576198 C191.20367996 623.14081647 183.11112966 623.13640401 175.0185585 623.12897491 C171.18810827 623.12547525 167.35765856 623.12321103 163.5272072 623.12139618 C35.22221602 623.06060586 35.22221602 623.06060586 -27.6875 621.0625 C-28.89505951 621.0249762 -30.10261902 620.98745239 -31.34677124 620.9487915 C-46.94805075 620.4478723 -62.45812808 619.45126889 -78 618 C-77.67 617.34 -77.34 616.68 -77 616 C-71.39 616 -65.78 616 -60 616 C-60.33 615.34 -60.66 614.68 -61 614 C-62.00822441 604.33096266 -59.85730024 597.4117497 -54 589.75 C-50.93415924 586.33908625 -48.21015151 585.24904065 -43.875 583.875 C-40.07623413 582.44275619 -38.40725927 581.64624437 -36.22265625 578.1796875 C-34.84378855 574.49991292 -33.85659597 570.82517691 -33 567 C-32.52820313 565.21529297 -32.52820313 565.21529297 -32.046875 563.39453125 C-26.62215094 539.20519352 -30.00432395 513.11217052 -34 489 C-34.19787109 487.79682129 -34.39574219 486.59364258 -34.59960938 485.35400391 C-40.33000535 451.02262672 -48.41717658 417.19523355 -56.63427734 383.390625 C-57.19734754 381.07378253 -57.75540296 378.75578457 -58.3125 376.4375 C-58.77076172 374.54837891 -58.77076172 374.54837891 -59.23828125 372.62109375 C-60.6648543 365.83938496 -61.16937188 359.21973425 -61.23828125 352.3125 C-61.24789383 351.4998317 -61.25750641 350.68716339 -61.26741028 349.84986877 C-61.29201305 347.23320281 -61.30465506 344.61676799 -61.3125 342 C-61.31578308 341.1112619 -61.31906616 340.2225238 -61.32244873 339.30685425 C-61.35828405 309.33534052 -61.35828405 309.33534052 -57 297 C-56.34 296.67 -55.68 296.34 -55 296 C-54.94054199 297.16849487 -54.94054199 297.16849487 -54.87988281 298.3605957 C-53.01484833 333.3402964 -46.56329359 363.2343504 -24.36474609 391.265625 C-23.24500848 392.68863323 -22.15862476 394.13782721 -21.08203125 395.59375 C-13.21675357 405.52883759 -0.87312753 412.16545066 10.31396484 417.68701172 C10.95903488 418.007379 11.60410492 418.32774628 12.26872253 418.65782166 C13.84493731 419.44031828 15.42234679 420.22040758 17 421 C16.96241577 421.94895142 16.92483154 422.89790283 16.8861084 423.87561035 C16.52800095 432.93309286 16.17495649 441.99076131 15.82654572 451.04862213 C15.64738245 455.70243622 15.46659366 460.35617389 15.28173828 465.00976562 C14.24602374 490.04974203 14.24602374 490.04974203 13.84375 515.10546875 C13.84105103 516.02537598 13.83835205 516.9452832 13.83557129 517.89306641 C13.86953371 524.06950134 14.52853669 529.94558706 15.53125 536.04296875 C16.71347194 543.5008188 16.94904467 548.77102394 13.09765625 555.43359375 C9.52844023 562.31640274 8.67422183 568.79250136 7.9375 576.4375 C6.71567264 588.67516772 5.16614043 601.2148099 -4.44921875 609.828125 C-6 611 -6 611 -8 612 C7.84 612 23.68 612 40 612 C40 607.71 40 603.42 40 599 C42.7972418 591.48241266 46.35535352 586.52989462 53 582 C54.01835937 581.5565625 55.03671875 581.113125 56.0859375 580.65625 C61.48199851 577.58931988 62.40332619 571.68799999 64 566 C66.93837052 553.38370897 67.49129333 540.77521804 67.625 527.875 C67.66183845 525.29630846 67.70259643 522.71775173 67.74765015 520.13919067 C67.77429918 518.5564893 67.79588705 516.97369038 67.81118774 515.39083862 C67.87031232 511.230476 68.20894771 507.23239877 68.77145386 503.1022644 C69.21416289 499.03003887 69.18323164 494.94394442 69.203125 490.8515625 C69.21013931 489.88948883 69.21715363 488.92741516 69.22438049 487.93618774 C69.24185429 484.83241078 69.24823626 481.7288244 69.25 478.625 C69.25067474 477.56776733 69.25134949 476.51053467 69.25204468 475.42126465 C69.21687379 440.7907557 64.13324145 412.14244207 48 381.375 C47.2938032 380.02107715 46.58807197 378.66691135 45.8828125 377.3125 C45.53859756 376.65146271 45.19438263 375.99042542 44.83973694 375.30935669 C44.50074875 374.65812836 44.16176056 374.00690002 43.8125 373.3359375 C43.31217506 372.3749263 43.31217506 372.3749263 42.80174255 371.39450073 C29.61554184 346.04730705 21.37501616 318.81706349 28.34375 290.296875 C29.04229975 286.78749414 29.10869893 283.56894825 29 280 C28.85900879 280.74685059 28.71801758 281.49370117 28.57275391 282.26318359 C27.93150821 285.6353692 27.27841283 289.0051518 26.625 292.375 C26.40328125 293.550625 26.1815625 294.72625 25.953125 295.9375 C25.73398437 297.05898438 25.51484375 298.18046875 25.2890625 299.3359375 C25.09006348 300.37282715 24.89106445 301.4097168 24.68603516 302.47802734 C24 305 24 305 22 307 C19.23346626 300.0235236 17.90723405 293.97378937 17.7890625 286.4140625 C17.19586041 257.77640241 14.02916666 227.19493928 -7.0859375 205.7265625 C-16.76475133 196.67051418 -29.32499495 191.42611177 -42 188 C-42 187.34 -42 186.68 -42 186 C-34.53712486 181.99815312 -26.91427939 179.05722036 -18.9375 176.25 C-3.88768508 170.79907905 10.00986527 164.81174311 22 154 C21.40316406 154.44730469 20.80632812 154.89460937 20.19140625 155.35546875 C10.25220215 162.28189776 -0.51231823 164.82528955 -12.18383789 167.359375 C-25.22301771 170.2189659 -37.38916907 175.20287338 -49.6640625 180.37890625 C-68.20508911 188.18986125 -89.55320817 196.52540354 -109.6875 189.0625 C-115.64303986 186.09758375 -120.36210981 181.70971592 -125 177 C-124.67 176.01 -124.34 175.02 -124 174 C-118.63054237 173.72697673 -114.25895813 174.09537363 -109.0625 175.5 C-95.26575615 178.86466682 -82.34770972 177.4098628 -69 173 C-70.8253125 173.2165625 -70.8253125 173.2165625 -72.6875 173.4375 C-73.37199219 173.51871094 -74.05648437 173.59992188 -74.76171875 173.68359375 C-76.32816926 173.90502916 -77.88643264 174.18923843 -79.43359375 174.51953125 C-94.39691802 177.3208842 -111.55649739 172.74490315 -125 166 C-127.85488132 163.67600742 -129.2932175 161.22960041 -131 158 C-131.69867188 156.8965625 -132.39734375 155.793125 -133.1171875 154.65625 C-133.87248369 153.4391665 -134.62508161 152.22040444 -135.375 151 C-135.73400391 150.43087891 -136.09300781 149.86175781 -136.46289062 149.27539062 C-139.1977405 144.5817246 -139.42015426 141.26896151 -139 136 C-137.30864165 134.30864165 -135.17663162 134.86989974 -132.86328125 134.8671875 C-131.81076172 134.86589844 -130.75824219 134.86460937 -129.67382812 134.86328125 C-128.56458984 134.86714844 -127.45535156 134.87101563 -126.3125 134.875 C-125.22259766 134.87113281 -124.13269531 134.86726562 -123.00976562 134.86328125 C-121.42131836 134.86521484 -121.42131836 134.86521484 -119.80078125 134.8671875 C-118.83309814 134.86831543 -117.86541504 134.86944336 -116.8684082 134.87060547 C-113.84549255 135.00696987 -110.97239478 135.44585735 -108 136 C-110.37437837 130.06405408 -115.50253856 128.42383384 -121 126 C-119.84784049 122.54352147 -119.34033453 122.32172332 -116.31640625 120.58203125 C-115.5584375 120.13649902 -114.80046875 119.6909668 -114.01953125 119.23193359 C-113.20871094 118.76352051 -112.39789063 118.29510742 -111.5625 117.8125 C-104.58013886 113.66056699 -98.13034827 109.35734463 -92 104 C-91.15050781 103.30519531 -90.30101562 102.61039062 -89.42578125 101.89453125 C-79.00219883 93.09135626 -74.70614337 83.72868615 -70.69238281 70.98803711 C-66.69635001 58.53536109 -60.82365044 47.74979695 -52 38 C-51.32453125 37.24332031 -50.6490625 36.48664063 -49.953125 35.70703125 C-42.25597312 27.54636475 -30.88917166 17.43503386 -19.31640625 16.796875 C-18.07761719 16.78140625 -16.83882813 16.7659375 -15.5625 16.75 C-10.52501872 16.28391744 -10.52501872 16.28391744 -6.53515625 13.44628906 C-3.71093171 9.25501967 -1.7927489 4.70811372 0 0 Z " fill="#040404" transform="translate(358,167)"/>
<path d="M0 0 C0.33 0 0.66 0 1 0 C1.6788678 17.23906452 0.6384948 33.49089369 -2.13354492 50.4777832 C-3.72647551 60.31996883 -4.59017104 70.03734564 -5 80 C10.24195219 73.91235385 25.16952516 67.61437804 39.77539062 60.10083008 C47.67558249 56.06939282 55.61844391 52.88592215 64 50 C65.34196731 49.48520928 66.68308836 48.96820808 68.0234375 48.44921875 C71.50922291 47.1342797 74.98295803 46.18138885 78.625 45.375 C79.68976563 45.13523437 80.75453125 44.89546875 81.8515625 44.6484375 C103.18172688 40.25537635 122.44109173 43.79146497 141 55 C144.61167693 57.41449154 147.814241 60.05022315 151 63 C151.4738916 63.43296387 151.9477832 63.86592773 152.43603516 64.31201172 C160.19081098 71.46432984 166.25885372 79.13044468 172 88 C179.89162389 100.0533758 187.78774604 111.91080733 197 123 C197.69077637 123.84304688 197.69077637 123.84304688 198.39550781 124.703125 C204.16249128 131.7231131 210.21192968 138.31446022 216.6875 144.6875 C240.02889754 167.72644894 248.66792477 192.83858222 249.1796875 225.3984375 C249.21487494 231.93397455 249.14608011 238.46609894 249 245 C247.91074219 245.28617188 246.82148437 245.57234375 245.69921875 245.8671875 C240.17552576 247.55870911 236.66745024 250.4566818 233.6875 255.3125 C231.1467804 261.68521264 231.1467804 261.68521264 231 276 C203.61 275.67 176.22 275.34 148 275 C149.32 273.35 150.64 271.7 152 270 C153.22807054 267.63550333 153.22807054 267.63550333 154.125 265.1875 C154.43695312 264.39730469 154.74890625 263.60710937 155.0703125 262.79296875 C157.5314801 255.39912492 158.47052362 248.43289711 159 240.6875 C159.12181641 239.02448853 159.12181641 239.02448853 159.24609375 237.32788086 C159.99348682 226.81910309 160.55612942 216.29987889 161.12298584 205.78012085 C161.5898143 197.16168676 162.14158308 188.57802511 163.125 180 C163.27751735 178.56121631 163.42987415 177.12241558 163.58203125 175.68359375 C163.8413003 173.39863383 164.1432452 171.11756583 164.51171875 168.84765625 C165.02534746 164.09158783 164.69280405 161.91811597 161.75390625 158.0234375 C159.84541463 155.91004544 157.84731014 153.89781241 155.828125 151.890625 C146.577124 142.66393675 141.78684155 129.23340812 141.5 116.3125 C141.71902214 109.94834232 142.42792194 103.67934638 143.3125 97.375 C143.42980469 96.53364502 143.54710937 95.69229004 143.66796875 94.82543945 C144.42908049 90.00004928 145.71623908 86.36281498 148 82 C148.45734191 78.10924668 148.45734191 78.10924668 146.453125 76.359375 C143.98109834 74.55356829 141.5055501 72.75921603 139 71 C138.06027344 70.31035156 137.12054687 69.62070312 136.15234375 68.91015625 C121.38749047 58.46387666 105.03837925 56.21302184 87.37890625 58.4609375 C77.96552869 60.34583053 68.84458387 63.46321896 59.74902344 66.49682617 C58 67 58 67 56 67 C65.60969517 104.36507174 80.25400951 136.79010834 111.12109375 161.53515625 C120.24170213 169.34398106 124.81626867 180.24542056 126 192 C128.37958913 234.24082174 128.37958913 234.24082174 123 245 C121.21484375 245.421875 121.21484375 245.421875 118.9375 245.75 C112.7916478 247.03201694 108.29393069 249.79495881 104.61328125 254.9375 C102.18747387 259.56781304 101.82758177 263.61321282 101.90625 268.80859375 C101.91978516 269.97060303 101.93332031 271.1326123 101.94726562 272.32983398 C101.96466797 273.21098877 101.98207031 274.09214355 102 275 C95.99406315 274.87941599 89.98821781 274.75509557 83.98242188 274.62768555 C81.9502153 274.58505519 79.91798904 274.5433504 77.88574219 274.50268555 C58.84547654 274.1205593 58.84547654 274.1205593 49.6552124 273.63217163 C31.61323687 272.67792065 13.53983468 272.6563958 -4.52270508 272.46777344 C-9.32376163 272.4168164 -14.12476827 272.36152468 -18.92578125 272.30664062 C-28.28381117 272.20027917 -37.64188512 272.09858302 -47 272 C-46.21882813 271.23171875 -45.43765625 270.4634375 -44.6328125 269.671875 C-36.61032734 261.53036187 -33.95526026 251.47943782 -33.82421875 240.26171875 C-33.80037109 239.19373047 -33.77652344 238.12574219 -33.75195312 237.02539062 C-33.70921437 234.81204098 -33.67783951 232.59844078 -33.65820312 230.38476562 C-33.44385873 222.09512084 -31.63742474 216.36514632 -27.37768555 209.31494141 C-25.58650023 205.00505053 -25.67399189 201.48876599 -25.8125 196.87890625 C-25.83848183 195.05298342 -25.86410193 193.22705542 -25.8894043 191.40112305 C-25.90804535 190.44829437 -25.9266864 189.4954657 -25.94589233 188.51376343 C-26.33429793 167.3284619 -25.17454326 146.84100374 -22.29541016 125.84619141 C-20.26329485 110.90818802 -18.90099014 95.97933481 -17.77050781 80.94873047 C-16.6029913 65.58135598 -15.21419551 50.8169767 -9.625 36.3125 C-5.30227627 24.55312876 -1.87487837 12.40611008 0 0 Z " fill="#ffffff" transform="translate(503,506)"/>
<path d="M0 0 C9.73796267 1.40949711 18.35833002 5.17311192 27.39257812 8.92382812 C38.36816477 13.38021701 48.81103041 16.32002375 60.6875 16.4375 C69.15597629 16.7241538 76.95952464 17.42157661 83.125 23.875 C85.17752622 27.29587704 85.46597567 29.08580435 85 33 C83.453125 33.82757813 83.453125 33.82757813 81.875 34.671875 C78.18794688 36.78247181 75.08281496 39.34028427 72 42.25 C71.030625 43.14203125 70.06125 44.0340625 69.0625 44.953125 C66.82576753 47.11254189 64.77290161 49.37351556 62.74609375 51.73046875 C58.42117531 56.74433328 53.75312776 61.39298535 49.0625 66.0625 C47.77956055 67.35124023 47.77956055 67.35124023 46.47070312 68.66601562 C34.35470546 80.76352969 34.35470546 80.76352969 28 85 C25.02064169 84.83267254 23.52800576 84.53449232 21.41015625 82.390625 C7.91879774 60.96087293 4.98714847 37.88550451 2.00170898 13.30102539 C1.88512939 12.36379639 1.7685498 11.42656738 1.6484375 10.4609375 C1.54708496 9.62353027 1.44573242 8.78612305 1.34130859 7.92333984 C1.18902567 5.99813262 1.18902567 5.99813262 0 5 C-0.04063832 3.33382885 -0.042721 1.66611905 0 0 Z " fill="#030203" transform="translate(366,157)"/>
<path d="M0 0 C2.9288321 2.58058682 4.57189647 5.56740379 6.5 8.9375 C15.804926 24.44643638 29.44808174 35.7537685 46 43 C43.95889528 33.47864557 41.72574448 24.50539044 37.85546875 15.5390625 C37 13 37 13 38 10 C67 59.80561122 67 59.80561122 67 74 C52.51009374 72.39236077 41.6142589 68.20365409 29 61 C28.11054688 60.49210938 27.22109375 59.98421875 26.3046875 59.4609375 C12.886518 51.595114 -0.42295838 42.27285212 -9 29 C-9 28.01 -9 27.02 -9 26 C-8.44054687 26.61746094 -7.88109375 27.23492188 -7.3046875 27.87109375 C-0.18795925 35.38828098 7.71240991 41.35620496 17 46 C16.35933594 44.906875 15.71867187 43.81375 15.05859375 42.6875 C8.03816563 30.28410898 0 14.58852726 0 0 Z " fill="#050405" transform="translate(348,522)"/>
<path d="M0 0 C6.64223257 3.77629466 11.93602185 9.58388016 16 16 C16 16.66 16 17.32 16 18 C15.42145264 18.17015625 14.84290527 18.3403125 14.24682617 18.515625 C2.85511638 21.92486418 -7.00087913 24.98539834 -16 33 C-16.80566406 33.66128906 -17.61132812 34.32257813 -18.44140625 35.00390625 C-24.38903868 40.0108917 -28.71189077 45.56783616 -33 52 C-36.47575128 51.43206678 -38.02496366 50.33831755 -40.3125 47.6875 C-40.84488281 47.09324219 -41.37726563 46.49898437 -41.92578125 45.88671875 C-43 44 -43 44 -42.73120117 42.11035156 C-41.9215073 39.77345879 -40.90639239 38.28467313 -39.375 36.34765625 C-38.83488281 35.65172363 -38.29476563 34.95579102 -37.73828125 34.23876953 C-37.16464844 33.49997559 -36.59101563 32.76118164 -36 32 C-34.84879715 30.44014649 -33.70307237 28.87623709 -32.5625 27.30859375 C-31.97726562 26.50873047 -31.39203125 25.70886719 -30.7890625 24.88476562 C-29.59449234 23.25070841 -28.40178827 21.6152854 -27.2109375 19.97851562 C-17.4057962 6.59903317 -17.4057962 6.59903317 -11 2 C-10.195625 1.401875 -9.39125 0.80375 -8.5625 0.1875 C-5.20889904 -1.36660776 -3.51255302 -1.03664279 0 0 Z " fill="#040405" transform="translate(299,162)"/>
<path d="M0 0 C-3.34645046 3.94709541 -6.74646507 7.8165393 -10.25 11.625 C-17.8930317 20.11016875 -24.53276578 29.27746373 -31.0625 38.625 C-43.9945408 57.12147427 -43.9945408 57.12147427 -50 61 C-50.66 61 -51.32 61 -52 61 C-52.55288475 52.97726429 -51.11305455 45.70225475 -49.22900391 37.92260742 C-48.75074334 35.94058057 -48.29417378 33.95442948 -47.83984375 31.96679688 C-43.3988388 13.21063766 -43.3988388 13.21063766 -37 7 C-32.63202402 5.25789604 -28.47117481 4.57794874 -23.8125 4.0625 C-18.15088047 3.39305647 -12.80910877 2.2981931 -7.3671875 0.5859375 C-4.82969904 -0.0421537 -2.60383863 -0.10192963 0 0 Z " fill="#040505" transform="translate(282,161)"/>
<path d="M0 0 C2.53939006 5.07878012 1.53420611 11.87099321 0.19921875 17.19140625 C-3.28334649 26.94498245 -9.04317529 38.11978582 -17 45 C-17.66 45 -18.32 45 -19 45 C-20.52153787 38.15307959 -21.76873037 29.22659801 -18 23 C-19.65 23 -21.3 23 -23 23 C-22.43103702 16.45692571 -21.18652384 8.97870707 -16.203125 4.3203125 C-11.4175283 1.18556117 -5.65767345 -1.88589115 0 0 Z " fill="#030404" transform="translate(273,221)"/>
<path d="M0 0 C1.02083333 0.875 2.04166667 1.75 3.0625 2.625 C3.70832031 3.17542969 4.35414063 3.72585938 5.01953125 4.29296875 C6.23813255 5.34332135 7.44643349 6.40594549 8.63671875 7.48828125 C14.41533142 12.67923839 20.97119919 16.79267111 27.7734375 20.51953125 C30 22 30 22 31 25 C30.67 25.99 30.34 26.98 30 28 C31.32 28 32.64 28 34 28 C34.495 29.485 34.495 29.485 35 31 C21.29827691 27.75485506 8.71832639 14.16436767 1 3 C0.67 2.01 0.34 1.02 0 0 Z " fill="#07090E" transform="translate(338,548)"/>
<path d="M0 0 C0.66 0 1.32 0 2 0 C1.50947058 4.25125498 -1.02950057 7.11829267 -4 10 C-9.01564969 13.49929048 -14.06971856 13.76965383 -20 13 C-23.125 11.5 -23.125 11.5 -25 10 C-24.67 9.01 -24.34 8.02 -24 7 C-23.42894531 7.32226562 -22.85789062 7.64453125 -22.26953125 7.9765625 C-18.04495345 9.88162168 -13.35543973 9.85108662 -9 8.27734375 C-5.05344148 6.17648178 -2.64449547 3.52599396 0 0 Z " fill="#F0F0F1" transform="translate(341,254)"/>
<path d="M0 0 C2.25 0.8125 2.25 0.8125 3.25 1.8125 C3.54044498 4.5717273 3.5690465 6.24947676 2.1875 8.6875 C-0.86569315 10.46032183 -3.41411708 9.50485306 -6.75 8.8125 C-7.08 7.1625 -7.41 5.5125 -7.75 3.8125 C-3.45648683 -0.23566956 -3.45648683 -0.23566956 0 0 Z " fill="#E7E6E6" transform="translate(326.75,242.1875)"/>
<path d="M0 0 C3.20748823 2.77102623 5.15548776 6.31324578 7.25 9.9375 C7.81460937 10.86852539 7.81460937 10.86852539 8.390625 11.81835938 C11.0620659 16.42954137 11.0620659 16.42954137 10.734375 19.44140625 C10.49203125 19.95574219 10.2496875 20.47007812 10 21 C9.34 21 8.68 21 8 21 C7.67 21.99 7.34 22.98 7 24 C6.74605469 23.154375 6.49210937 22.30875 6.23046875 21.4375 C3.93712757 13.83928134 3.93712757 13.83928134 1.25 6.375 C0 3 0 3 0 0 Z " fill="#141616" transform="translate(385,532)"/>
<path d="M0 0 C1.02083333 0.875 2.04166667 1.75 3.0625 2.625 C4.02349609 3.44484375 4.02349609 3.44484375 5.00390625 4.28125 C6.27221903 5.37333928 7.53125073 6.47637428 8.77734375 7.59375 C12.62456999 11.01350665 16.44985272 13.58563614 21 16 C20.01 16.33 19.02 16.66 18 17 C17.34 16.67 16.68 16.34 16 16 C15.67 16.99 15.34 17.98 15 19 C0 2.63106796 0 2.63106796 0 0 Z " fill="#151721" transform="translate(338,548)"/>
<path d="M0 0 C0.33 1.32 0.66 2.64 1 4 C-5.27 3.67 -11.54 3.34 -18 3 C-17.67 2.34 -17.34 1.68 -17 1 C-8.585 0.505 -8.585 0.505 0 0 Z " fill="#313634" transform="translate(298,782)"/>
<path d="M0 0 C2.61724095 2.36797991 4.32861729 4.89600354 6 8 C6 8.66 6 9.32 6 10 C5.34 10 4.68 10 4 10 C3.67 10.99 3.34 11.98 3 13 C2.49487756 11.39743892 1.99608373 9.79288208 1.5 8.1875 C1.2215625 7.29417969 0.943125 6.40085937 0.65625 5.48046875 C0 3 0 3 0 0 Z " fill="#1C1D1F" transform="translate(348,522)"/>
<path d="M0 0 C2.97 0.495 2.97 0.495 6 1 C6.33 1.99 6.66 2.98 7 4 C8.32 4 9.64 4 11 4 C11.33 4.99 11.66 5.98 12 7 C7.39104317 5.68315519 3.85859765 3.84801255 0 1 C0 0.67 0 0.34 0 0 Z " fill="#172126" transform="translate(361,572)"/>
</svg>
